Coordinates
version=1
nRows=22
nColumns=24
inDegrees=yes

Units are S.I. units (second, meters, Newtons, ...)
Angles are in degrees.

endheader
time	pelvis_tilt	pelvis_list	pelvis_rotation	pelvis_tx	pelvis_ty	pelvis_tz	hip_flexion_r	hip_adduction_r	hip_rotation_r	knee_angle_r	ankle_angle_r	subtalar_angle_r	mtp_angle_r	hip_flexion_l	hip_adduction_l	hip_rotation_l	knee_angle_l	ankle_angle_l	subtalar_angle_l	mtp_angle_l	lumbar_extension	lumbar_bending	lumbar_rotation
      7.43000000	      3.19310569	      7.16499971	      3.64490262	      2.21588402	      0.89601367	     -0.26599212	     15.97195742	     -8.77910348	     -5.19552674	    -70.09293345	    -11.72907498	     -1.41130917	      0.00000000	      0.90405664	     14.18322980	      7.12393777	     -7.45700227	      8.68409743	     -4.67040240	      0.00000000	    -21.46058243	     -7.87799662	     -3.33365663
      7.44000000	      3.08159698	      7.02167899	      3.95986142	      2.22592027	      0.89657971	     -0.26709145	     17.49140733	     -8.63373174	     -5.14275176	    -69.86898786	     -9.25695979	     -1.09932708	      0.00000000	     -0.07736026	     13.99976383	      7.55531208	     -6.85041253	      9.07564394	     -4.34891309	      0.00000000	    -21.51086197	     -7.53188350	     -3.74580485
      7.45000000	      2.96456129	      6.89295752	      4.26738144	      2.23592483	      0.89695126	     -0.26817402	     18.92373364	     -8.51254342	     -5.09122109	    -69.32839193	     -6.95539720	     -0.85222939	      0.00000000	     -1.03249567	     13.82991979	      7.94494814	     -6.26252483	      9.44987395	     -4.10306571	      0.00000000	    -21.54938336	     -7.20969857	     -4.19188992
      7.46000000	      2.84227940	      6.75919048	      4.56184930	      2.24587109	      0.89715706	     -0.26922571	     20.25695328	     -8.38732728	     -5.03771843	    -68.44975860	     -4.88488664	     -0.71847196	      0.00000000	     -1.94426963	     13.65381502	      8.33401350	     -5.72476686	      9.82936182	     -3.91992638	      0.00000000	    -21.59947356	     -6.89336205	     -4.61551138
      7.47000000	      2.72612737	      6.64986360	      4.89611748	      2.25576053	      0.89720001	     -0.27034291	     21.45782084	     -8.32073545	     -5.03682160	    -67.24319699	     -3.03676302	     -0.67202875	      0.00000000	     -2.82868232	     13.50607945	      8.77239317	     -5.24748365	     10.19870546	     -3.84955168	      0.00000000	    -21.67585129	     -6.58607022	     -5.12221702
      7.48000000	      2.61670480	      6.52096356	      5.24473200	      2.26558930	      0.89715601	     -0.27136664	     22.51040865	     -8.21856520	     -5.03902453	    -65.66617497	     -1.45252544	     -0.76365357	      0.00000000	     -3.67451862	     13.32295014	      9.30100645	     -4.84250006	     10.55714074	     -3.84154519	      0.00000000	    -21.78677838	     -6.27770351	     -5.60751980
      7.49000000	      2.49686796	      6.38810690	      5.58934180	      2.27540183	      0.89693491	     -0.27239717	     23.43907109	     -8.12193213	     -5.04854787	    -63.74761844	     -0.07648627	     -0.93320314	      0.00000000	     -4.45167427	     13.14268950	      9.80238007	     -4.53144527	     10.98879455	     -3.89829446	      0.00000000	    -21.89029998	     -5.95404822	     -6.06430204
      7.50000000	      2.37914320	      6.27635895	      5.98907039	      2.28520123	      0.89665125	     -0.27336825	     24.19390413	     -8.04701942	     -5.07744485	    -61.46064779	      1.11096119	     -1.14505693	      0.00000000	     -5.19021280	     12.96695343	     10.40695799	     -4.30662606	     11.37775414	     -4.00083202	      0.00000000	    -22.01888604	     -5.67365740	     -6.61034113
      7.51000000	      2.24904705	      6.17895098	      6.40006160	      2.29501923	      0.89622468	     -0.27433433	     24.80715832	     -7.98789219	     -5.09615024	    -58.83281881	      2.17460545	     -1.32532144	      0.00000000	     -5.87245430	     12.80556541	     11.04011988	     -4.16433505	     11.79136861	     -4.16637702	      0.00000000	    -22.13919233	     -5.39935768	     -7.17395605
      7.52000000	      2.17075063	      6.08716220	      6.80709242	      2.30492183	      0.89577665	     -0.27527053	     25.19086006	     -7.91456024	     -5.08762210	    -55.84581391	      3.13660351	     -1.40447910	      0.00000000	     -6.59685449	     12.63660634	     11.79460318	     -4.05657022	     12.13712292	     -4.55840593	      0.00000000	    -22.30738889	     -5.12644321	     -7.74083990
      7.53000000	      1.94689993	      6.05288814	      7.28412038	      2.31488057	      0.89503901	     -0.27619762	     25.57350693	     -7.92188208	     -5.07299699	    -52.56456980	      4.00684646	     -1.36749675	      0.00000000	     -7.09810185	     12.53588135	     12.40092273	     -4.10417992	     12.61968624	     -4.60352622	      0.00000000	    -22.29504423	     -4.94484533	     -8.38821361
      7.54000000	      1.78129371	      6.03241638	      7.77824145	      2.32497018	      0.89430580	     -0.27709352	     25.71443366	     -7.92314865	     -5.03847946	    -48.96226677	      4.79322705	     -1.14497490	      0.00000000	     -7.65894055	     12.42807082	     13.07370407	     -4.18243054	     13.06127783	     -4.72945402	      0.00000000	    -22.33881868	     -4.77247751	     -9.06951640
      7.55000000	      1.61508771	      6.04680273	      8.27281482	      2.33522099	      0.89346788	     -0.27794675	     25.70051664	     -7.94154704	     -4.95579111	    -45.10356968	      5.49412616	     -0.69868933	      0.00000000	     -8.21738633	     12.34533097	     13.75432141	     -4.29258713	     13.48781392	     -4.85737378	      0.00000000	    -22.36426718	     -4.65334873	     -9.77335980
      7.56000000	      1.43187439	      6.11314623	      8.76378869	      2.34571580	      0.89248521	     -0.27876941	     25.56145570	     -8.00173663	     -4.83358885	    -41.05120724	      6.12242564	     -0.01072784	      0.00000000	     -8.76253746	     12.31132613	     14.38784017	     -4.44231064	     13.91406974	     -4.93802496	      0.00000000	    -22.30679197	     -4.60851527	    -10.45950174
      7.57000000	      1.33807087	      6.25807769	      9.31051378	      2.35624286	      0.89155496	     -0.27961105	     25.18754932	     -8.13174988	     -4.67193539	    -36.86267500	      6.60674484	      0.89708996	      0.00000000	     -9.38545657	     12.32807198	     15.12639809	     -4.68000289	     14.29300958	     -5.03347670	      0.00000000	    -22.39538836	     -4.61237328	    -11.31813769
      7.58000000	      1.21889542	      6.45367485	      9.85490239	      2.36703733	      0.89047869	     -0.28042884	     24.73743763	     -8.32070031	     -4.51629975	    -32.63707665	      7.02828518	      2.06935766	      0.00000000	     -9.99349855	     12.38844072	     15.83153599	     -4.94977059	     14.65026752	     -5.07457492	      0.00000000	    -22.40338902	     -4.69922801	    -12.14554423
      7.59000000	      1.13455976	      6.70374354	     10.42385395	      2.37799188	      0.88937600	     -0.28126162	     24.16650857	     -8.57783725	     -4.40405528	    -28.45523379	      7.36310683	      3.44903107	      0.00000000	    -10.63125243	     12.48583986	     16.56101565	     -5.28972205	     14.97116984	     -5.09984273	      0.00000000	    -22.44416881	     -4.83458834	    -13.02581417
      7.60000000	      0.96786188	      7.03690091	     11.04294458	      2.38898848	      0.88810887	     -0.28211610	     23.65343496	     -8.96519068	     -4.35986299	    -24.45642500	      7.62612919	      5.00342777	      0.00000000	    -11.13592612	     12.67362453	     17.29897369	     -5.78235650	     15.34015397	     -4.91632207	      0.00000000	    -22.40587315	     -5.07879565	    -13.95326395
      7.61000000	      0.92515109	      7.34668799	     11.70408178	      2.40022424	      0.88704152	     -0.28304354	     22.94885239	     -9.35525166	     -4.63360206	    -20.64206547	      7.85395774	      6.70913970	      0.00000000	    -11.78129396	     12.78842236	     18.07453358	     -6.29239696	     15.60358861	     -4.80434289	      0.00000000	    -22.48402432	     -5.25638033	    -14.96355296
      7.62000000	      0.94654957	      7.70185015	     12.34476293	      2.41146875	      0.88605806	     -0.28395662	     22.19977579	     -9.78581319	     -5.08082211	    -17.16526681	      8.07859013	      8.49034669	      0.00000000	    -12.45656151	     12.93598005	     18.95611139	     -6.91374595	     15.80888336	     -4.75891023	      0.00000000	    -22.66605794	     -5.45652200	    -15.92255482
      7.63000000	      0.84932741	      8.00682784	     13.06416945	      2.42284224	      0.88504909	     -0.28487975	     21.57943361	    -10.20045412	     -5.83858336	    -14.05039397	      8.19832429	     10.10736462	      0.00000000	    -12.93659591	     13.03514211	     19.72137316	     -7.67556704	     16.05029537	     -4.42592127	      0.00000000	    -22.67705643	     -5.62471131	    -16.98959945
      7.64000000	      0.87474020	      8.28329733	     13.74777428	      2.43429819	      0.88427441	     -0.28578220	     20.88753147	    -10.55575326	     -6.99107213	    -11.41423297	      8.43625504	     11.80689797	      0.00000000	    -13.49566408	     13.08037893	     20.45965270	     -8.52813400	     16.24743990	     -4.10541400	      0.00000000	    -22.83352554	     -5.72007750	    -17.95362097
